<svg width="500" height="280" viewBox="0 0 500 280" fill="none" xmlns="http://www.w3.org/2000/svg">
<path d="M187.684 41.7962C189.867 43.5506 191.018 45.9459 191.293 48.6436C191.364 50.8716 190.763 53.0924 189.366 54.8845C189.268 55.0118 189.169 55.1391 189.067 55.2702C187.459 57.1754 185.122 58.3649 182.59 58.6756C179.624 58.8678 176.92 58.1553 174.626 56.2949C172.81 54.6257 171.599 52.3673 171.447 49.9411C171.409 46.9991 172.241 44.4577 174.407 42.2933C178.203 38.9796 183.618 38.946 187.684 41.7962Z" fill="#F94D6F"/>
<path d="M137.982 54.3427C139.448 55.5695 140.206 56.9183 140.405 58.7656C140.498 60.734 139.973 62.2582 138.574 63.7386C137.108 65.0519 135.417 65.6174 133.428 65.5834C131.169 65.3785 129.713 64.2917 128.3 62.6583C127.396 60.9595 127.155 59.2342 127.653 57.3778C128.199 55.8331 129.384 54.5428 130.873 53.7609C133.272 52.684 135.793 52.9102 137.982 54.3427Z" fill="#F84D6F"/>
<path d="M277.901 18.0003C278.041 18.0012 278.181 18.0021 278.325 18.003C280.719 18.0518 282.659 18.9919 284.404 20.5404C286.428 22.6391 286.8 25.0484 286.706 27.785C286.649 28.5215 286.423 29.1207 286.112 29.7911C286.249 29.8397 286.386 29.8883 286.528 29.9384C287.042 30.1474 287.467 30.3865 287.93 30.6831C288.094 30.7877 288.258 30.8923 288.427 31C288.598 31.1112 288.77 31.2223 288.947 31.3369C289.124 31.4508 289.301 31.5647 289.483 31.6821C290.776 32.5191 292.038 33.3803 293.264 34.3043C293.419 34.4197 293.573 34.5351 293.732 34.6541C294.208 35.0143 294.678 35.3799 295.147 35.7485C295.421 35.9646 295.421 35.9646 295.702 36.185C298.293 38.2452 300.856 40.4515 303.048 42.9055C303.336 43.2272 303.627 43.5459 303.92 43.8631C307.152 47.3823 309.837 51.2602 312.209 55.3511C312.426 55.7243 312.647 56.0955 312.868 56.4663C314.431 59.1539 315.714 62.0394 316.604 64.9941C317.008 66.3001 317.606 66.9614 318.732 67.8212C320.379 69.1944 320.951 71.2175 321.173 73.23C321.233 74.6637 320.925 76.1299 320.165 77.3681C319.622 78.3805 319.708 79.439 319.71 80.5534C319.683 82.1056 319.621 83.4152 319.048 84.872C318.679 85.9105 318.592 87.0136 318.486 88.1018C318.462 88.3436 318.462 88.3436 318.437 88.5903C318.292 90.1868 318.251 91.7787 318.242 93.3803C318.24 93.6759 318.236 93.9715 318.231 94.2671C318.199 95.983 318.207 97.3829 319.051 98.9335C319.208 99.2595 319.366 99.5855 319.522 99.9121C319.763 100.411 320.009 100.907 320.254 101.403C320.594 102.088 320.931 102.774 321.269 103.46C321.371 103.667 321.371 103.667 321.475 103.878C322.499 105.955 323.504 108.041 324.509 110.126C324.576 110.266 324.644 110.405 324.713 110.548C325.241 111.645 325.769 112.742 326.297 113.838C326.37 113.99 326.443 114.141 326.518 114.297C326.921 115.134 327.323 115.971 327.724 116.808C327.884 117.14 328.045 117.471 328.206 117.803C328.292 117.982 328.379 118.161 328.468 118.345C328.541 118.495 328.614 118.645 328.689 118.8C328.838 119.153 328.838 119.153 328.838 119.514C328.617 119.518 328.617 119.518 328.39 119.522C327.708 119.535 327.026 119.553 326.344 119.57C325.996 119.576 325.996 119.576 325.64 119.582C322.946 119.657 320.494 120.166 318.451 121.951C316.418 124.049 315.428 126.844 314.841 129.592C314.8 129.781 314.759 129.97 314.717 130.165C314.304 132.117 313.957 134.078 313.615 136.041C311.024 150.863 311.024 150.863 306.193 154.423C303.264 156.341 299.847 156.77 296.401 156.174C294.201 155.738 292.047 155.087 289.89 154.486C287.707 153.88 285.522 153.326 283.289 152.911C282.939 152.846 282.939 152.846 282.583 152.778C278.515 152.138 273.232 152.018 269.658 154.283C269.23 154.594 268.824 154.92 268.419 155.258C268.285 155.362 268.15 155.465 268.011 155.571C265.241 157.772 263.299 160.995 261.584 163.98C261.508 164.109 261.432 164.237 261.354 164.369C260.963 165.04 260.963 165.04 260.992 165.78C261.291 166.118 261.597 166.381 261.961 166.654C263.84 168.188 264.828 170.236 265.172 172.552C265.411 175.45 264.557 177.925 262.656 180.171C260.839 182.046 258.447 183.042 255.803 183.154C252.892 183.2 250.664 182.223 248.567 180.282C247.614 179.31 246.837 178.293 246.209 177.102C246.131 176.955 246.053 176.807 245.973 176.655C245.274 175.109 245.1 172.951 245.644 171.325C244.464 170.375 243.238 169.523 241.964 168.693C240.987 168.055 240.025 167.399 239.068 166.733C237.967 165.967 236.863 165.206 235.751 164.454C235.62 164.365 235.488 164.276 235.353 164.185C234.956 163.917 234.56 163.65 234.163 163.382C232.536 162.285 230.914 161.184 229.304 160.065C227.953 159.125 226.589 158.204 225.22 157.289C223.998 156.471 222.788 155.639 221.585 154.796C220.649 154.143 219.696 153.521 218.729 152.911C218.596 152.994 218.464 153.077 218.327 153.163C215.512 154.84 212.504 155.363 209.259 154.705C206.662 153.956 204.385 152.468 203.02 150.194C201.555 147.552 201.026 144.643 201.906 141.707C202.423 140.339 203.131 139.085 204.047 137.928C202.336 135.152 200.622 132.377 198.871 129.623C197.301 127.152 195.759 124.664 194.223 122.173C194.047 121.888 193.871 121.604 193.695 121.319C193.601 121.147 193.507 120.975 193.409 120.798C193.271 120.609 193.271 120.609 193.131 120.416C192.601 120.367 192.172 120.366 191.648 120.405C188.972 120.502 186.944 119.665 184.99 117.934C183.351 116.296 182.889 114.284 182.898 112.085C182.945 110.031 183.776 108.35 185.225 106.848C187.185 105.052 189.317 104.617 191.944 104.66C194.071 104.75 195.885 105.826 197.319 107.283C198.192 108.274 198.965 109.344 198.965 110.668C199.227 110.664 199.227 110.664 199.493 110.661C201.819 110.631 204.145 110.604 206.471 110.578C206.663 110.575 206.854 110.573 207.052 110.571C214.199 110.492 221.345 110.471 228.493 110.476C228.734 110.476 228.976 110.476 229.224 110.476C232.188 110.479 235.152 110.482 238.116 110.487C238.133 110.302 238.133 110.302 238.15 110.113C238.166 109.951 238.182 109.789 238.199 109.621C238.214 109.461 238.229 109.3 238.245 109.134C238.461 107.469 239.507 106.002 240.562 104.71C240.705 104.533 240.847 104.355 240.994 104.172C241.513 103.579 242.114 103.169 242.786 102.747C242.898 102.675 243.011 102.602 243.127 102.527C243.4 102.351 243.675 102.176 243.95 102.002C243.484 100.375 242.86 98.8056 242.239 97.2283C242.127 96.943 242.015 96.6576 241.903 96.3722C241.611 95.6253 241.318 94.8786 241.024 94.132C240.726 93.3743 240.429 92.6163 240.132 91.8583C239.609 90.5234 239.085 89.1887 238.561 87.8541C238.476 87.638 238.391 87.4218 238.304 87.1991C238.252 87.0722 238.2 86.9453 238.146 86.8146C237.739 85.8127 237.739 85.8127 237.739 85.2133C237.581 85.2392 237.581 85.2392 237.42 85.2655C234.311 85.6778 231.256 84.7289 228.704 83.047C228.039 82.5389 227.425 81.9976 226.822 81.4222C226.705 81.3156 226.587 81.2091 226.466 81.0992C224.297 78.9679 223.277 75.7507 223.199 72.8471C223.247 69.2268 224.63 66.2436 227.256 63.6656C229.75 61.388 232.944 60.0829 236.398 60.086C236.531 60.0859 236.663 60.0858 236.799 60.0857C237.74 60.0949 238.544 60.1966 239.433 60.4809C239.481 60.3288 239.53 60.1766 239.579 60.0199C239.826 59.3519 240.139 58.7357 240.48 58.1094C240.578 57.9273 240.578 57.9273 240.678 57.7416C240.89 57.3492 241.102 56.9575 241.315 56.5657C241.463 56.2933 241.61 56.0208 241.757 55.7483C242.173 54.9784 242.591 54.2093 243.009 53.4403C243.105 53.2646 243.2 53.0888 243.298 52.9077C244.058 51.5104 244.83 50.1197 245.606 48.7311C245.669 48.6181 245.732 48.5052 245.797 48.3889C246.111 47.8273 246.426 47.2659 246.741 46.7048C247.067 46.1225 247.391 45.5393 247.715 44.9555C247.799 44.8056 247.883 44.6557 247.969 44.5013C248.384 43.8072 248.384 43.8072 248.362 43.0374C248.273 42.8959 248.183 42.7544 248.091 42.6086C247.902 42.2483 247.713 41.8873 247.527 41.5254C245.472 41.6335 243.43 41.7982 241.384 42.0082C241.084 42.0385 240.784 42.0688 240.484 42.099C239.845 42.1634 239.206 42.2283 238.567 42.2934C237.555 42.3965 236.543 42.4986 235.531 42.6006C233.02 42.8537 230.509 43.108 227.998 43.3628C226.041 43.5614 224.083 43.7596 222.126 43.9566C221.121 44.0578 220.116 44.1598 219.112 44.2623C218.486 44.326 217.861 44.3889 217.236 44.4517C216.947 44.4808 216.659 44.5102 216.37 44.5399C214.957 44.6853 213.564 44.8124 212.141 44.7749C212.103 44.9554 212.103 44.9554 212.064 45.1395C211.542 47.2837 210.331 49.1659 208.374 50.3551C206.164 51.5554 204.055 51.9976 201.518 51.5109C198.897 50.7994 196.973 49.4973 195.631 47.2177C194.53 45.1381 194.4 42.8718 195.013 40.6228C195.882 38.3622 197.441 36.6005 199.718 35.568C201.716 34.6932 203.962 34.4835 206.071 35.128C206.21 35.1803 206.348 35.2327 206.491 35.2866C206.961 35.4115 207.174 35.385 207.624 35.2069C208.001 34.9172 208.001 34.9172 208.388 34.5412C211.206 32.0549 214.474 30.1582 217.788 28.3468C218.025 28.217 218.025 28.217 218.267 28.0845C220.832 26.6975 223.528 25.608 226.258 24.5558C226.417 24.4941 226.576 24.4324 226.74 24.3689C239.924 19.3171 256.385 17.6173 269.925 22.3894C270.062 22.2159 270.062 22.2159 270.201 22.0389C272.22 19.5407 274.506 17.9746 277.901 18.0003ZM211.576 37.7343C211.327 37.9163 211.076 38.0975 210.823 38.2759C210.945 38.8197 211.134 39.2718 211.4 39.7653C211.582 40.1038 211.582 40.1038 211.765 40.4423C213.39 40.4884 214.985 40.312 216.599 40.1468C216.916 40.115 217.232 40.0833 217.549 40.0517C218.405 39.9659 219.262 39.8791 220.118 39.792C221.016 39.7009 221.914 39.6108 222.812 39.5205C224.32 39.3688 225.828 39.2166 227.335 39.0638C229.459 38.8487 231.582 38.6347 233.706 38.421C235.359 38.2546 237.011 38.0879 238.663 37.9212C238.84 37.9034 239.017 37.8856 239.198 37.8672C240.215 37.7646 241.232 37.6619 242.249 37.5589C242.556 37.5278 242.864 37.4967 243.171 37.4657C243.592 37.4232 244.013 37.3805 244.434 37.3378C244.669 37.314 244.904 37.2902 245.146 37.2657C245.878 37.1879 246.608 37.1013 247.338 37.0122C247.377 36.9007 247.417 36.7893 247.457 36.6744C248.228 34.6418 249.561 33.0378 251.614 32.0801C253.531 31.3741 255.687 31.3032 257.638 31.9447C258.271 32.2299 258.817 32.6067 259.365 33.0208C259.753 33.2579 259.753 33.2579 260.21 33.2014C260.813 33.0045 261.291 32.7328 261.831 32.4087C262.849 31.803 263.878 31.2196 264.918 30.6507C265.293 30.4446 265.667 30.2383 266.042 30.0319C266.293 29.894 266.545 29.7569 266.798 29.6205C267.157 29.4263 267.514 29.2293 267.871 29.0316C268.08 28.9171 268.29 28.8027 268.506 28.6848C268.995 28.394 268.995 28.394 269.159 27.9994C269.175 27.5495 269.097 27.1578 268.984 26.7221C266.253 25.7904 263.569 24.9843 260.702 24.5558C260.571 24.5358 260.44 24.5159 260.305 24.4954C243.552 22.0449 224.608 27.5731 211.576 37.7343ZM271.054 32.1379C269.315 33.063 267.591 34.0108 265.878 34.9813C265.705 35.0792 265.532 35.1771 265.354 35.2779C265.024 35.4658 264.694 35.6553 264.366 35.8467C264.064 36.0174 263.758 36.1798 263.446 36.3319C263.05 36.5342 262.721 36.7146 262.396 37.0122C262.29 37.5618 262.273 37.8667 262.337 38.4C262.409 39.4838 262.358 40.3144 261.937 41.3421C261.804 41.7997 261.824 41.9909 262.02 42.4281C262.4 42.866 262.4 42.866 262.878 43.2969C263.05 43.4565 263.221 43.6161 263.398 43.7806C263.923 44.252 264.46 44.7042 265.007 45.1522C265.505 45.5804 265.974 46.0337 266.443 46.49C267.021 47.0525 267.604 47.6018 268.231 48.1147C268.956 48.7074 269.621 49.3521 270.289 50.0018C270.779 50.4761 271.277 50.9309 271.807 51.3642C272.435 51.8772 273.017 52.4266 273.595 52.989C274.976 54.4476 274.976 54.4476 276.701 55.4261C277.152 55.1899 277.152 55.1899 277.63 54.8507C280.1 53.3106 282.79 53.0581 285.666 53.5595C288.065 54.2532 290.058 55.7202 291.348 57.7779C292.297 59.5214 292.57 60.9744 292.535 62.9181C292.533 63.101 292.532 63.2839 292.53 63.4723C292.526 63.9195 292.519 64.3665 292.512 64.8136C292.723 64.8826 292.934 64.9516 293.151 65.0227C293.78 65.2281 294.408 65.4337 295.037 65.6394C295.746 65.8716 296.456 66.1033 297.166 66.3347C298.674 66.8271 300.182 67.3197 301.679 67.8431C301.878 67.9123 302.077 67.9816 302.283 68.0529C302.637 68.1768 302.991 68.3029 303.344 68.4316C303.574 68.5117 303.574 68.5117 303.809 68.5934C303.937 68.6397 304.065 68.686 304.197 68.7338C304.682 68.803 304.903 68.6725 305.311 68.4242C305.568 68.1748 305.819 67.9182 306.063 67.6569C307.644 66.116 309.536 65.5581 311.71 65.1747C310.766 58.6216 304.702 51.3767 300.229 46.5802C300.105 46.446 299.981 46.3118 299.854 46.1735C298.799 45.0363 297.703 43.9447 296.582 42.8681C296.337 42.6295 296.337 42.6295 296.086 42.3861C294.954 41.2977 293.763 40.3186 292.512 39.3591C292.17 39.0776 291.829 38.7956 291.488 38.5129C289.902 37.2444 288.198 36.1342 286.488 35.0264C286.339 34.9291 286.19 34.8319 286.037 34.7316C285.625 34.4651 285.211 34.2032 284.794 33.9432C284.672 33.8639 284.549 33.7845 284.423 33.7028C284.045 33.4629 284.045 33.4629 283.477 33.2211C283.064 33.3082 283.064 33.3082 282.724 33.5822C280.119 34.7927 277.852 35.2661 274.978 34.4926C273.512 33.9776 272.271 33.0572 271.054 32.1379ZM257.95 45.4216C257.688 45.5316 257.688 45.5316 257.42 45.6437C255.77 46.2384 254.135 46.1637 252.42 45.8581C251.412 47.6914 250.408 49.5262 249.409 51.3642C248.647 52.7661 247.882 54.1663 247.113 55.5644C246.672 56.3666 246.234 57.1701 245.798 57.9747C245.696 58.1624 245.595 58.35 245.49 58.5434C245.291 58.9093 245.093 59.2753 244.896 59.6414C244.76 59.8915 244.76 59.8915 244.622 60.1467C244.542 60.2941 244.462 60.4414 244.38 60.5933C244.206 60.9031 244.02 61.2068 243.826 61.506C243.543 61.8966 243.543 61.8966 243.574 62.2862C243.854 62.5163 243.854 62.5163 244.221 62.7488C246.516 64.3677 247.746 66.3 248.844 68.7852C252.372 67.7499 255.897 66.7046 259.41 65.6225C259.634 65.5533 259.858 65.4842 260.09 65.413C261.226 65.0625 262.362 64.7099 263.497 64.3545C265.416 63.755 267.33 63.1633 269.28 62.6628C269.567 62.5868 269.854 62.5107 270.14 62.4344C270.645 62.3002 271.147 62.1803 271.658 62.0664C272.3 61.8962 272.775 61.7617 273.313 61.3836C273.675 60.6123 273.809 59.8765 273.878 59.0367C273.783 58.9601 273.689 58.8835 273.592 58.8046C272.706 58.0819 271.884 57.3119 271.067 56.5182C270.577 56.0438 270.079 55.5888 269.549 55.1553C268.921 54.6424 268.339 54.0931 267.76 53.5306C267.186 52.9719 266.608 52.4259 265.984 51.9171C265.211 51.2853 264.507 50.5952 263.794 49.9028C263.168 49.2979 262.523 48.73 261.845 48.1789C261.155 47.5862 260.519 46.9398 259.876 46.301C259.045 45.4894 259.045 45.4894 257.95 45.4216ZM272.661 65.963C272.396 66.045 272.396 66.045 272.125 66.1287C271.834 66.2198 271.834 66.2198 271.536 66.3128C271.331 66.3762 271.127 66.4395 270.916 66.5048C270.471 66.6429 270.025 66.7812 269.58 66.9196C268.386 67.2908 267.192 67.6601 265.997 68.0293C265.874 68.0675 265.75 68.1057 265.623 68.145C262.782 69.0232 259.937 69.8874 257.091 70.7485C256.863 70.8174 256.636 70.8862 256.401 70.9572C255.96 71.0909 255.518 71.2245 255.076 71.358C254.665 71.4824 254.254 71.6069 253.843 71.7317C253.031 71.9775 252.219 72.2217 251.401 72.4475C251.179 72.5091 250.957 72.5707 250.729 72.6342C250.46 72.7054 250.46 72.7054 250.186 72.7781C249.721 72.9211 249.721 72.9211 249.409 73.479C249.328 73.8526 249.263 74.2294 249.209 74.6073C249.179 74.8055 249.15 75.0038 249.12 75.2081C249.091 75.412 249.062 75.6158 249.032 75.8258C248.977 76.0395 248.922 76.2531 248.865 76.4732C248.775 77.1135 248.775 77.1135 249.247 77.5902C249.438 77.751 249.634 77.9073 249.832 78.0599C249.935 78.1444 250.038 78.229 250.144 78.3161C250.46 78.5737 250.781 78.825 251.103 79.0754C251.283 79.2178 251.463 79.3602 251.648 79.5069C251.989 79.7749 252.331 80.0415 252.675 80.3066C253.168 80.6961 253.642 81.0996 254.114 81.5125C254.739 82.0582 255.375 82.5821 256.032 83.0921C257.244 84.0336 258.416 85.0171 259.592 85.9993C260.152 86.4655 260.715 86.9285 261.279 87.3909C261.386 87.4794 261.494 87.5679 261.605 87.6591C261.822 87.8375 262.04 88.0158 262.257 88.1942C262.588 88.4659 262.919 88.7379 263.249 89.0101C264.311 89.8842 265.374 90.7562 266.443 91.6221C267.623 92.5783 268.797 93.5422 269.969 94.5076C270.628 95.0502 271.287 95.5922 271.947 96.1341C272.504 96.5915 273.06 97.0494 273.615 97.5083C274.619 98.337 275.625 99.1605 276.654 99.9602C277.477 100.601 278.264 101.272 279.048 101.957C279.541 102.378 280.047 102.778 280.559 103.176C281.236 103.701 281.893 104.238 282.536 104.801C283.806 105.91 285.147 106.932 286.488 107.96C287.116 107.73 287.698 107.466 288.288 107.159C290.482 106.104 292.57 106 294.958 106.335C297.515 100.922 297.515 100.922 300.055 95.5018C300.849 93.7996 301.646 92.0985 302.444 90.3979C302.662 89.9339 302.879 89.47 303.097 89.006C303.785 87.5374 304.476 86.0697 305.172 84.604C305.356 84.2155 305.54 83.8269 305.724 83.4383C305.895 83.0769 306.068 82.7157 306.24 82.3546C306.341 82.1404 306.443 81.9263 306.547 81.7057C306.636 81.5191 306.725 81.3325 306.816 81.1402C307.028 80.7237 307.028 80.7237 307.005 80.3391C306.784 80.1504 306.555 79.9715 306.322 79.7975C305.431 79.0695 304.897 78.2647 304.369 77.2701C304.31 77.1595 304.25 77.049 304.188 76.9351C303.615 75.6977 303.572 74.2691 303.428 72.9374C302.169 72.4399 300.902 71.9927 299.609 71.5841C299.43 71.5272 299.252 71.4702 299.067 71.4116C298.502 71.2314 297.936 71.052 297.37 70.8726C296.994 70.7531 296.619 70.6336 296.243 70.514C295.52 70.2838 294.796 70.0538 294.073 69.8241C292.799 69.4195 291.526 69.0124 290.253 68.6047C290.031 68.819 290.031 68.819 289.804 69.0377C287.77 70.9789 285.439 71.7282 282.628 71.7305C280.151 71.6925 278.071 70.8859 276.236 69.281C275.169 68.217 274.493 67.0626 273.878 65.7162C273.424 65.7162 273.093 65.8285 272.661 65.963ZM246.397 80.8806C246.321 80.964 246.245 81.0473 246.167 81.1331C244.964 82.3727 243.543 83.223 242.068 84.1302C242.968 86.6245 243.899 89.1072 244.85 91.5842C245.067 92.1511 245.284 92.7182 245.501 93.2853C246.199 95.1059 246.903 96.9239 247.621 98.7367C247.685 98.8974 247.749 99.0581 247.814 99.2237C247.873 99.3707 247.931 99.5176 247.992 99.669C248.043 99.7978 248.094 99.9265 248.147 100.059C248.279 100.389 248.279 100.389 248.468 100.739C248.851 100.777 249.236 100.796 249.621 100.806C253.132 101.009 255.869 102.264 258.255 104.71C259.724 106.489 260.518 108.565 260.823 110.8C260.846 111.203 260.846 111.203 261.079 111.39C261.337 111.427 261.598 111.452 261.859 111.473C262.027 111.487 262.196 111.501 262.369 111.516C262.555 111.53 262.741 111.545 262.933 111.56C263.128 111.575 263.323 111.591 263.524 111.608C264.173 111.66 264.822 111.712 265.471 111.763C265.921 111.799 266.372 111.835 266.822 111.872C267.77 111.947 268.717 112.023 269.664 112.098C270.874 112.194 272.085 112.291 273.295 112.389C274.227 112.464 275.159 112.538 276.091 112.612C276.537 112.648 276.983 112.683 277.429 112.719C278.055 112.77 278.682 112.819 279.308 112.868C279.491 112.883 279.673 112.898 279.861 112.914C281.069 113.007 282.266 113.031 283.477 113.015C283.663 112.538 283.85 112.062 284.042 111.57C283.914 111.472 283.786 111.374 283.655 111.272C282.76 110.577 281.881 109.877 281.03 109.133C280.387 108.571 279.73 108.034 279.054 107.509C278.377 106.984 277.721 106.446 277.077 105.884C276.453 105.338 275.817 104.814 275.16 104.304C273.948 103.363 272.776 102.379 271.599 101.397C271.04 100.931 270.477 100.468 269.913 100.005C269.805 99.9169 269.698 99.8284 269.587 99.7372C269.369 99.5589 269.152 99.3805 268.935 99.2022C268.604 98.9305 268.273 98.6584 267.943 98.3863C266.881 97.5121 265.818 96.6401 264.749 95.7742C263.568 94.8181 262.395 93.8541 261.223 92.8887C260.564 92.3461 259.904 91.8042 259.245 91.2623C258.688 90.8049 258.132 90.3469 257.577 89.888C256.573 89.0593 255.567 88.2358 254.538 87.4361C253.714 86.7952 252.928 86.124 252.144 85.439C251.484 84.8767 250.798 84.3488 250.112 83.817C249.597 83.4079 249.102 82.9834 248.609 82.5505C247.904 81.9338 247.188 81.3918 246.397 80.8806ZM314.91 81.6028C314.809 81.6288 314.709 81.6549 314.606 81.6817C313.496 81.9469 312.473 81.9969 311.334 81.9638C310.378 83.7589 309.475 85.5675 308.632 87.4135C308.309 88.1199 307.984 88.8251 307.658 89.5305C307.59 89.6785 307.522 89.8266 307.451 89.9791C306.662 91.6897 305.857 93.3935 305.052 95.0973C304.902 95.414 304.753 95.7307 304.603 96.0475C304.377 96.5254 304.152 97.0032 303.926 97.4811C303.15 99.1238 302.376 100.767 301.603 102.411C301.458 102.721 301.312 103.03 301.166 103.339C300.389 104.99 299.623 106.642 298.911 108.321C299.017 108.441 299.123 108.561 299.232 108.685C301.361 111.117 302.016 113.503 301.734 116.625C301.305 118.968 299.938 120.83 298.015 122.294C295.878 123.711 293.334 123.913 290.818 123.666C288.757 123.293 286.795 122.221 285.466 120.655C284.787 119.691 284.237 118.631 283.853 117.528C283.327 117.36 282.916 117.301 282.367 117.257C282.177 117.242 281.987 117.226 281.791 117.21C281.479 117.186 281.479 117.186 281.16 117.161C280.941 117.144 280.721 117.126 280.495 117.108C279.893 117.06 279.291 117.012 278.689 116.965C278.059 116.915 277.43 116.864 276.8 116.814C275.742 116.73 274.685 116.646 273.627 116.562C272.269 116.455 270.912 116.347 269.554 116.239C268.387 116.146 267.22 116.053 266.053 115.96C265.678 115.931 265.303 115.901 264.928 115.871C264.229 115.815 263.53 115.76 262.831 115.705C262.622 115.688 262.414 115.672 262.199 115.655C262.009 115.64 261.819 115.625 261.624 115.609C261.458 115.596 261.293 115.583 261.123 115.57C260.795 115.548 260.466 115.542 260.137 115.542C260.062 115.704 259.987 115.865 259.909 116.032C258.72 118.49 257.015 120.419 254.437 121.626C254.187 121.744 254.187 121.744 253.931 121.864C253.805 121.922 253.679 121.981 253.55 122.041C253.965 130.117 254.426 138.189 254.899 146.262C254.976 147.586 255.053 148.91 255.131 150.234C255.215 151.69 255.3 153.146 255.385 154.603C255.421 155.213 255.457 155.823 255.492 156.433C255.534 157.147 255.575 157.86 255.617 158.574C255.632 158.833 255.647 159.092 255.662 159.351C255.758 160.997 255.869 162.641 255.997 164.285C256.443 163.872 256.715 163.51 256.99 162.975C257.07 162.823 257.15 162.67 257.232 162.513C257.317 162.349 257.403 162.185 257.491 162.017C260.257 156.842 264.352 151.083 270.346 149.099C278.583 146.691 287.082 149.042 295.031 151.313C297.423 151.99 299.988 152.511 302.376 151.548C305.157 150.061 306.346 147.402 307.193 144.607C308.189 141.002 308.81 137.329 309.434 133.653C310.433 127.767 310.433 127.767 311.334 125.291C311.391 125.131 311.448 124.971 311.507 124.807C311.647 124.433 311.797 124.066 311.957 123.7C312.012 123.574 312.067 123.448 312.123 123.318C312.659 122.134 313.339 121.082 314.157 120.055C314.271 119.911 314.384 119.767 314.501 119.619C316.161 117.676 318.418 116.508 320.88 115.744C321.321 115.575 321.321 115.575 321.553 115.236C321.751 114.617 321.523 114.317 321.232 113.742C321.18 113.637 321.128 113.532 321.074 113.423C320.9 113.075 320.722 112.729 320.545 112.383C320.422 112.139 320.3 111.895 320.178 111.65C319.927 111.147 319.674 110.644 319.421 110.141C318.872 109.052 318.344 107.953 317.816 106.854C317.249 105.676 316.681 104.498 316.093 103.329C315.865 102.876 315.64 102.422 315.414 101.968C315.257 101.653 315.096 101.339 314.936 101.025C313.757 98.6447 313.716 96.3815 313.734 93.7997C313.734 93.6478 313.735 93.4959 313.735 93.3393C313.765 85.966 313.765 85.966 314.939 82.8263C315.102 82.3133 315.107 82.0945 314.91 81.6028ZM206.565 114.91C206.265 114.913 206.265 114.913 205.959 114.917C203.565 114.943 201.171 114.971 198.777 115.001C198.702 115.149 198.627 115.297 198.55 115.449C198.4 115.741 198.4 115.741 198.248 116.039C198.15 116.231 198.051 116.424 197.95 116.622C197.648 117.167 197.648 117.167 197.321 117.572C197.203 117.729 197.203 117.729 197.083 117.889C197.272 118.602 197.697 119.216 198.084 119.847C198.146 119.948 198.207 120.049 198.271 120.154C198.474 120.486 198.679 120.818 198.883 121.15C199.028 121.385 199.172 121.62 199.316 121.856C200.403 123.625 201.511 125.381 202.626 127.134C203.866 129.084 205.081 131.048 206.294 133.014C206.404 133.193 206.404 133.193 206.516 133.375C206.654 133.599 206.792 133.822 206.929 134.046C207.213 134.505 207.503 134.955 207.812 135.4C207.946 135.363 208.08 135.326 208.218 135.288C211.602 134.375 214.583 134.501 217.738 136.121C219.996 137.454 221.554 139.459 222.305 141.899C222.868 144.172 222.781 146.309 221.88 148.484C221.724 148.992 221.739 149.174 221.929 149.662C222.191 149.921 222.191 149.921 222.534 150.13C222.725 150.257 222.725 150.257 222.92 150.385C223.059 150.474 223.197 150.563 223.34 150.655C223.635 150.849 223.929 151.043 224.223 151.237C224.374 151.335 224.525 151.434 224.681 151.535C225.364 151.983 226.04 152.441 226.716 152.9C226.848 152.989 226.979 153.078 227.114 153.169C228.232 153.926 229.341 154.695 230.449 155.465C231.929 156.491 233.422 157.5 234.916 158.508C236.542 159.605 238.165 160.706 239.774 161.825C241.142 162.776 242.522 163.71 243.908 164.637C245.247 165.533 246.577 166.44 247.903 167.354C248.082 167.197 248.26 167.041 248.444 166.88C249.362 166.122 250.398 165.526 251.479 165.007C251.512 162.743 251.409 160.496 251.275 158.236C251.253 157.854 251.231 157.472 251.209 157.09C251.15 156.062 251.09 155.034 251.029 154.006C250.966 152.927 250.904 151.849 250.841 150.771C250.736 148.963 250.631 147.155 250.525 145.347C250.402 143.256 250.28 141.165 250.16 139.074C250.043 137.06 249.926 135.046 249.808 133.032C249.758 132.175 249.708 131.319 249.659 130.462C249.601 129.456 249.542 128.449 249.482 127.443C249.46 127.073 249.439 126.704 249.418 126.334C249.389 125.83 249.359 125.327 249.329 124.824C249.317 124.603 249.317 124.603 249.304 124.377C249.269 123.803 249.223 123.312 249.032 122.763C248.738 122.73 248.738 122.73 248.438 122.696C245.051 122.252 242.282 120.907 240.157 118.293C239.588 117.484 239.195 116.696 238.851 115.778C238.783 115.599 238.716 115.419 238.647 115.235C238.596 115.098 238.545 114.961 238.492 114.82C235.296 114.814 232.1 114.811 228.904 114.809C228.546 114.808 228.546 114.808 228.18 114.808C220.974 114.804 213.77 114.832 206.565 114.91Z" fill="#11489D"/>
<path d="M218.505 52.1089C220.177 53.354 221.411 55.2079 221.74 57.2313C221.921 59.6663 221.532 61.8136 219.858 63.7304C218.178 65.4381 216.436 66.1719 214.023 66.4383C214.004 66.6268 213.985 66.8154 213.966 67.0096C213.82 68.1239 213.525 69.2055 213.247 70.295C213.189 70.5241 213.131 70.7531 213.072 70.9892C212.95 71.4713 212.828 71.9533 212.705 72.4353C212.548 73.0526 212.392 73.6702 212.236 74.2879C212.087 74.8789 211.938 75.4697 211.788 76.0606C211.732 76.2823 211.676 76.504 211.618 76.7324C211.566 76.9374 211.514 77.1423 211.46 77.3534C211.414 77.5339 211.369 77.7143 211.321 77.9003C211.232 78.2353 211.126 78.5665 211.012 78.8948C211.148 78.9376 211.284 78.9804 211.424 79.0245C213.174 79.7901 214.44 81.6411 215.151 83.3029C216.063 85.7903 215.967 88.4428 214.888 90.8611C213.668 93.2199 211.773 94.9607 209.165 95.8306C206.368 96.6611 203.508 96.3627 200.907 95.1085C198.383 93.6472 196.871 91.5392 196.142 88.8238C195.971 88.0773 195.977 87.4553 196.063 86.6974C196.122 86.036 196.09 85.5104 195.954 84.8522C195.265 84.1007 194.419 83.7205 193.495 83.2951C193.247 83.1705 192.999 83.0446 192.752 82.9176C192.249 82.6598 191.744 82.4072 191.236 82.1576C190.12 81.6019 189.058 80.9645 187.99 80.3277C187.634 80.1185 187.278 79.9096 186.922 79.7008C186.67 79.5525 186.418 79.4042 186.167 79.2558C185.999 79.3645 185.999 79.3645 185.829 79.4753C183.23 81.154 180.891 82.0242 177.698 81.5124C175.073 80.8849 172.93 79.519 171.485 77.2926C170.242 75.0486 169.941 72.5406 170.662 70.0827C171.612 67.4873 173.231 65.8056 175.756 64.5265C178.064 63.5832 180.824 63.5855 183.175 64.394C184.079 64.7908 184.839 65.2873 185.602 65.8967C185.735 66.0003 185.869 66.1038 186.006 66.2105C187.411 67.4161 188.626 69.4816 188.802 71.3126C188.876 72.7468 188.893 74.0918 188.425 75.4647C188.556 75.511 188.687 75.5573 188.822 75.6051C189.428 75.851 189.973 76.148 190.54 76.4689C190.651 76.5317 190.762 76.5945 190.877 76.6592C191.237 76.8622 191.595 77.0661 191.954 77.27C192.201 77.4093 192.447 77.5486 192.693 77.6878C193.18 77.9628 193.666 78.2382 194.153 78.5139C194.885 78.9289 195.618 79.3423 196.351 79.7554C196.909 80.0699 197.467 80.385 198.024 80.7C198.109 80.6294 198.194 80.5588 198.281 80.4861C199.77 79.2515 201.216 78.2227 203.106 77.6311C203.219 77.5955 203.331 77.5598 203.446 77.5232C204.068 77.4138 204.688 77.4318 205.318 77.4392C205.449 77.4401 205.581 77.4409 205.716 77.4417C206.038 77.4438 206.36 77.4471 206.683 77.4505C206.703 77.3206 206.723 77.1906 206.744 77.0568C206.969 75.6816 207.287 74.3501 207.658 73.005C207.772 72.5794 207.885 72.1537 207.999 71.7279C208.176 71.0646 208.355 70.4017 208.538 69.7396C208.715 69.0951 208.887 68.4496 209.057 67.8035C209.114 67.6048 209.17 67.406 209.228 67.2012C209.276 67.0167 209.324 66.8322 209.373 66.6421C209.417 66.4803 209.461 66.3184 209.506 66.1517C209.554 65.6855 209.554 65.6855 209.161 65.3154C208.959 65.1563 208.959 65.1563 208.753 64.9941C208.633 64.8984 208.513 64.8028 208.39 64.7042C208.269 64.61 208.148 64.5157 208.024 64.4186C206.45 63.1058 205.47 61.3399 205.32 59.3413C205.268 56.8308 205.805 54.7808 207.624 52.8987C210.7 50.2063 215.048 49.8863 218.505 52.1089Z" fill="#F84D6F"/>
<path d="M206.118 206.878C206.682 207.25 206.682 207.25 207.059 207.611C207.583 207.667 207.583 207.667 208.207 207.659C208.453 207.661 208.698 207.662 208.95 207.664C209.224 207.664 209.497 207.664 209.77 207.663C210.057 207.664 210.343 207.666 210.63 207.667C211.248 207.67 211.866 207.671 212.485 207.672C213.463 207.673 214.442 207.677 215.42 207.682C217.499 207.69 219.579 207.696 221.658 207.702C223.898 207.708 226.138 207.714 228.378 207.724C229.35 207.728 230.321 207.731 231.293 207.732C231.899 207.733 232.506 207.736 233.113 207.739C233.393 207.74 233.673 207.74 233.953 207.74C236.662 207.738 238.923 208.068 240.998 209.891C242.625 211.551 243.095 213.466 243.066 215.663C243.028 216.535 242.791 217.268 242.421 218.064C242.22 218.458 242.22 218.458 242.256 218.985C242.557 219.292 242.557 219.292 242.95 219.583C244.543 220.876 245.388 222.208 245.621 224.209C245.735 226.408 245.102 228.308 243.55 229.963C241.807 231.502 239.548 232.043 237.243 232.026C237.088 232.027 236.934 232.027 236.775 232.027C236.262 232.028 235.75 232.026 235.238 232.024C234.868 232.024 234.499 232.024 234.13 232.024C233.131 232.024 232.132 232.022 231.133 232.019C230.088 232.017 229.043 232.017 227.997 232.017C226.02 232.015 224.042 232.012 222.064 232.009C219.812 232.005 217.559 232.003 215.307 232.001C210.676 231.997 206.044 231.991 201.412 231.983C201.21 231.401 201.2 230.982 201.2 230.37C201.199 230.149 201.198 229.929 201.198 229.701C201.198 229.46 201.199 229.218 201.199 228.977C201.199 228.728 201.199 228.479 201.198 228.23C201.198 227.706 201.199 227.183 201.199 226.66C201.201 225.996 201.2 225.331 201.199 224.666C201.198 224.151 201.198 223.636 201.199 223.121C201.199 222.758 201.198 222.396 201.198 222.034C201.199 221.695 201.199 221.695 201.2 221.349C201.2 221.154 201.2 220.958 201.2 220.757C201.233 219.802 201.323 218.853 201.412 217.902C201.588 217.901 201.765 217.901 201.946 217.901C206.233 217.894 210.52 217.883 214.807 217.868C216.88 217.861 218.954 217.855 221.027 217.853C222.834 217.85 224.641 217.845 226.448 217.838C227.405 217.834 228.362 217.831 229.319 217.831C230.22 217.831 231.121 217.828 232.022 217.822C232.352 217.82 232.682 217.82 233.012 217.821C235.304 217.864 235.304 217.864 237.363 216.999C238.014 216.342 238.279 215.869 238.351 214.957C238.284 214.013 238.01 213.46 237.304 212.802C236.396 212.234 235.552 212.08 234.479 212.072C234.244 212.069 234.009 212.066 233.767 212.064C233.509 212.063 233.251 212.062 232.993 212.061C232.719 212.059 232.445 212.056 232.172 212.054C231.275 212.046 230.379 212.042 229.483 212.039C229.174 212.037 228.864 212.036 228.555 212.034C227.102 212.027 225.648 212.022 224.195 212.019C222.521 212.016 220.846 212.006 219.172 211.992C217.875 211.981 216.579 211.975 215.282 211.974C214.509 211.973 213.735 211.97 212.962 211.961C212.234 211.953 211.506 211.951 210.779 211.955C210.512 211.955 210.246 211.953 209.98 211.948C208.623 211.924 207.684 211.945 206.645 212.84C206.52 212.969 206.395 213.098 206.267 213.231C205.656 213.843 205.018 213.921 204.165 213.94C202.992 213.888 202.104 213.603 201.224 212.847C200.399 211.944 200.022 210.98 200.095 209.778C200.31 208.686 200.737 207.828 201.6 207.07C203.076 206.239 204.59 206.074 206.118 206.878ZM205.93 222.054C205.93 223.96 205.93 225.867 205.93 227.831C210.128 227.843 214.326 227.853 218.524 227.859C220.474 227.862 222.423 227.865 224.373 227.872C226.072 227.877 227.771 227.88 229.47 227.882C230.37 227.882 231.269 227.884 232.169 227.888C233.016 227.892 233.863 227.893 234.71 227.892C235.021 227.892 235.331 227.893 235.642 227.895C236.067 227.898 236.491 227.897 236.916 227.896C237.154 227.896 237.391 227.897 237.636 227.897C238.892 227.772 239.724 227.305 240.562 226.386C241.097 225.617 241.056 224.943 240.939 224.04C240.495 223.156 239.936 222.719 239.057 222.234C238.398 222.024 237.883 222.032 237.188 222.032C237.054 222.032 236.921 222.032 236.783 222.032C236.335 222.031 235.887 222.032 235.439 222.033C235.118 222.033 234.797 222.033 234.476 222.033C233.604 222.033 232.732 222.034 231.859 222.035C230.948 222.037 230.037 222.037 229.126 222.037C227.4 222.037 225.674 222.039 223.949 222.041C221.984 222.043 220.019 222.044 218.055 222.045C214.013 222.047 209.971 222.05 205.93 222.054Z" fill="#11479D"/>
<path d="M107.725 202.117C108.73 202.671 109.372 203.404 109.831 204.419C110.06 205.861 109.864 206.776 108.996 207.973C108.567 211.259 108.693 214.591 108.619 217.902C120.048 217.902 131.477 217.902 143.252 217.902C143.252 214.625 143.252 211.349 143.252 207.973C144.743 207.973 146.233 207.973 147.769 207.973C147.769 215.896 147.769 223.819 147.769 231.983C146.403 231.983 145.036 231.983 143.629 231.983C142.084 229.021 143.252 225.366 143.252 222.054C131.823 222.054 120.394 222.054 108.619 222.054C108.619 225.45 108.619 228.845 108.619 232.344C106.88 232.344 105.141 232.344 103.349 232.344C103.348 231.624 103.348 230.904 103.347 230.163C103.344 227.784 103.335 225.406 103.324 223.027C103.318 221.585 103.313 220.143 103.312 218.701C103.312 217.444 103.308 216.186 103.3 214.929C103.296 214.264 103.294 213.598 103.295 212.933C103.297 212.189 103.291 211.446 103.285 210.702C103.287 210.482 103.288 210.263 103.29 210.037C103.274 208.891 103.182 208.114 102.44 207.193C101.939 206.502 101.975 205.719 102.032 204.904C102.321 203.755 102.833 203.017 103.867 202.342C105.099 201.658 106.412 201.562 107.725 202.117Z" fill="#11479D"/>
<path d="M247.715 207.792C251.792 207.783 255.87 207.777 259.947 207.773C261.84 207.771 263.734 207.769 265.627 207.765C267.278 207.761 268.93 207.759 270.581 207.758C271.454 207.757 272.328 207.756 273.201 207.754C274.025 207.751 274.849 207.751 275.673 207.751C275.974 207.751 276.275 207.75 276.575 207.749C281.097 207.729 284.948 208.575 288.371 211.583C290.828 214.029 291.858 217.021 291.824 220.364C291.728 223.673 290.22 226.469 287.762 228.765C284.78 231.236 281.232 232.013 277.391 232.003C277.137 232.003 276.883 232.003 276.63 232.003C276.085 232.003 275.541 232.003 274.997 232.002C274.136 232.001 273.274 232.003 272.412 232.005C272.267 232.006 272.121 232.006 271.971 232.006C271.673 232.007 271.375 232.008 271.077 232.009C269.073 232.014 267.069 232.017 265.065 232.014C263.711 232.012 262.356 232.014 261.002 232.02C260.287 232.023 259.571 232.024 258.855 232.021C258.182 232.018 257.509 232.019 256.836 232.025C256.473 232.027 256.11 232.023 255.747 232.019C254.464 232.035 253.678 232.149 252.716 232.997C252.011 233.593 251.064 233.497 250.176 233.489C249.028 233.366 248.283 232.772 247.538 231.96C246.762 230.923 246.852 229.786 246.962 228.553C247.275 227.572 248 226.965 248.844 226.386C249.939 225.891 251.146 225.799 252.305 226.168C252.942 226.463 253.461 226.77 253.926 227.289C253.926 227.408 253.926 227.527 253.926 227.65C257.151 227.659 260.376 227.665 263.601 227.669C265.099 227.671 266.596 227.673 268.094 227.677C269.4 227.681 270.706 227.683 272.012 227.684C272.703 227.684 273.394 227.686 274.085 227.688C274.858 227.691 275.632 227.691 276.405 227.691C276.631 227.692 276.857 227.694 277.09 227.695C279.025 227.69 280.873 227.565 282.606 226.691C282.817 226.587 283.029 226.484 283.246 226.377C285.151 225.273 286.188 223.704 286.865 221.693C287.354 219.698 287.01 217.799 285.947 216.029C284.754 214.25 282.933 212.916 280.789 212.378C279.206 212.076 277.634 212.069 276.027 212.067C275.717 212.065 275.407 212.064 275.097 212.062C274.262 212.057 273.426 212.054 272.591 212.052C271.715 212.049 270.84 212.044 269.964 212.039C268.309 212.031 266.654 212.024 264.999 212.018C263.114 212.011 261.228 212.002 259.343 211.993C255.467 211.975 251.591 211.959 247.715 211.944C247.464 209.102 247.464 209.102 247.715 207.792Z" fill="#F84D6F"/>
<path d="M311.899 207.792C312.908 208.592 313.809 209.445 314.698 210.365C314.898 210.569 314.898 210.569 315.101 210.778C315.912 211.613 316.715 212.455 317.507 213.307C318.016 213.851 318.533 214.387 319.051 214.923C319.853 215.754 320.646 216.591 321.433 217.434C321.952 217.985 322.478 218.53 323.004 219.076C323.805 219.906 324.598 220.743 325.386 221.586C325.905 222.137 326.43 222.683 326.956 223.228C327.761 224.062 328.559 224.902 329.349 225.749C329.842 226.273 330.34 226.793 330.838 227.312C331.518 228.021 332.189 228.736 332.847 229.464C333.45 230.128 334.062 230.784 334.673 231.442C334.611 231.62 334.549 231.799 334.485 231.983C329.28 232.453 329.28 232.453 327.936 231.444C327.359 230.889 326.888 230.271 326.441 229.616C326.117 229.152 325.733 228.756 325.333 228.35C325.202 228.21 325.071 228.069 324.936 227.924C324.43 227.385 323.917 226.852 323.404 226.319C323.26 226.171 323.26 226.171 323.114 226.019C323.019 225.92 322.923 225.821 322.825 225.719C321.657 224.508 320.493 223.294 319.345 222.066C318.506 221.169 317.654 220.285 316.802 219.401C316.252 218.831 315.704 218.26 315.157 217.688C314.906 217.425 314.906 217.425 314.649 217.157C314.031 216.506 313.422 215.848 312.816 215.187C312.456 214.8 312.456 214.8 311.899 214.472C311.177 215.148 310.462 215.825 309.805 216.559C309.144 217.297 308.452 218.005 307.758 218.714C306.979 219.511 306.209 220.311 305.465 221.139C304.713 221.96 303.93 222.755 303.156 223.557C302.697 224.033 302.239 224.51 301.782 224.988C301.627 225.149 301.473 225.31 301.314 225.476C300.633 226.196 299.961 226.924 299.288 227.651C308.046 227.74 308.046 227.74 316.981 227.831C317.167 227.474 317.167 227.474 317.357 227.109C318.422 226.17 319.368 225.938 320.786 225.971C321.778 226.075 322.469 226.394 323.152 227.092C324.061 228.199 324.271 229.141 324.133 230.539C323.744 231.658 323.227 232.515 322.157 233.123C321.152 233.562 320.132 233.593 319.051 233.428C318.305 233.122 317.74 232.711 317.169 232.164C316.672 232.107 316.672 232.107 316.083 232.115C315.852 232.113 315.62 232.111 315.382 232.109C315.125 232.109 314.867 232.109 314.609 232.109C314.339 232.108 314.069 232.106 313.799 232.105C313.216 232.101 312.634 232.099 312.051 232.098C311.131 232.096 310.21 232.091 309.29 232.086C307.835 232.079 306.379 232.073 304.924 232.068C302.316 232.058 299.709 232.047 297.102 232.034C296.186 232.03 295.27 232.026 294.355 232.023C293.786 232.022 293.217 232.019 292.648 232.016C292.384 232.015 292.119 232.014 291.855 232.014C291.495 232.013 291.134 232.011 290.774 232.009C290.573 232.009 290.371 232.008 290.163 232.007C289.688 231.983 289.688 231.983 289.312 231.803C289.555 231.295 289.813 230.912 290.214 230.508C290.317 230.404 290.419 230.299 290.524 230.192C290.633 230.083 290.741 229.974 290.853 229.862C291.077 229.634 291.301 229.406 291.525 229.177C291.685 229.014 291.685 229.014 291.849 228.848C292.176 228.512 292.493 228.168 292.806 227.82C293.471 227.08 294.164 226.366 294.857 225.65C295.429 225.057 295.997 224.461 296.559 223.86C297.307 223.059 298.067 222.269 298.828 221.479C299.394 220.893 299.955 220.303 300.511 219.707C301.346 218.814 302.195 217.933 303.044 217.052C303.842 216.224 304.636 215.393 305.43 214.561C305.692 214.286 305.955 214.012 306.217 213.738C307.013 212.907 307.807 212.074 308.593 211.234C311.062 208.595 311.062 208.595 311.899 207.792Z" fill="#F94D6F"/>
<path d="M374.2 207.792C375.169 208.257 375.809 208.967 376.529 209.722C376.648 209.845 376.768 209.968 376.891 210.095C377.481 210.707 378.061 211.326 378.632 211.955C379.264 212.651 379.916 213.326 380.576 213.998C381.46 214.903 382.335 215.813 383.197 216.738C383.669 217.242 384.145 217.742 384.623 218.241C384.709 218.331 384.796 218.422 384.885 218.515C385.15 218.792 385.416 219.069 385.681 219.346C387.632 221.382 387.632 221.382 388.587 222.404C389.243 223.106 389.908 223.8 390.575 224.491C391.526 225.476 392.465 226.47 393.398 227.47C393.673 227.764 393.947 228.057 394.222 228.35C394.359 228.497 394.496 228.643 394.637 228.794C394.975 229.152 395.316 229.506 395.659 229.858C395.755 229.956 395.85 230.054 395.948 230.156C396.136 230.348 396.324 230.54 396.513 230.731C397.163 231.401 397.163 231.401 397.163 231.803C396.377 232.18 395.384 232.069 394.519 232.086C394.145 232.096 393.772 232.115 393.399 232.135C391.612 232.168 391.612 232.168 390.796 231.637C390.369 231.23 389.999 230.817 389.634 230.359C389.435 230.139 389.236 229.921 389.034 229.704C388.93 229.588 388.827 229.472 388.72 229.353C388.159 228.744 387.579 228.153 386.999 227.56C385.614 226.144 385.614 226.144 385.023 225.484C384.281 224.657 383.497 223.868 382.719 223.072C381.952 222.286 381.196 221.493 380.449 220.691C379.977 220.187 379.501 219.687 379.023 219.188C378.893 219.053 378.893 219.053 378.761 218.915C378.314 218.448 377.867 217.981 377.419 217.514C376.457 216.512 375.504 215.504 374.576 214.472C373.998 214.715 373.659 214.965 373.259 215.431C372.657 216.114 372.034 216.773 371.4 217.428C370.586 218.271 369.78 219.119 368.98 219.975C368.067 220.948 367.14 221.91 366.216 222.874C364.183 224.973 364.183 224.973 362.223 227.136C362.076 227.306 361.929 227.475 361.777 227.651C363.96 227.68 366.142 227.702 368.325 227.716C369.339 227.723 370.352 227.732 371.366 227.746C372.345 227.76 373.323 227.767 374.302 227.771C374.675 227.773 375.048 227.777 375.421 227.784C377.703 227.919 377.703 227.919 379.683 227.027C379.868 226.818 380.049 226.605 380.223 226.387C381.083 225.888 382.07 225.897 383.046 226.026C384.288 226.397 385.078 226.926 385.712 228.018C386.167 229.039 386.203 230.051 385.823 231.103C385.364 232.153 384.771 232.818 383.689 233.296C382.57 233.619 381.41 233.576 380.317 233.202C379.846 232.886 379.846 232.886 379.51 232.511C378.971 232.062 378.684 232.073 377.977 232.073C377.748 232.071 377.52 232.069 377.284 232.067C377.031 232.068 376.779 232.069 376.526 232.071C376.26 232.07 375.993 232.069 375.726 232.067C375.153 232.064 374.58 232.064 374.006 232.065C373.1 232.067 372.194 232.064 371.287 232.06C369.855 232.055 368.422 232.052 366.989 232.052C364.421 232.051 361.854 232.045 359.286 232.036C358.385 232.033 357.483 232.033 356.582 232.033C356.022 232.033 355.462 232.032 354.902 232.03C354.642 232.03 354.382 232.03 354.122 232.031C353.767 232.032 353.413 232.03 353.059 232.029C352.86 232.029 352.662 232.029 352.457 232.029C351.99 231.983 351.99 231.983 351.613 231.622C351.761 231.47 351.909 231.317 352.061 231.16C353.312 229.87 353.312 229.87 354.531 228.553C355.2 227.811 355.897 227.093 356.593 226.372C357.307 225.632 358.013 224.885 358.715 224.134C359.454 223.347 360.201 222.569 360.948 221.789C361.381 221.336 361.815 220.883 362.248 220.429C362.77 219.883 363.291 219.337 363.814 218.792C364.61 217.961 365.403 217.129 366.189 216.289C367.028 215.392 367.88 214.507 368.733 213.622C369.445 212.884 370.153 212.143 370.86 211.402C371.219 211.026 371.579 210.651 371.94 210.276C372.033 210.18 372.125 210.083 372.221 209.984C372.478 209.716 372.736 209.448 372.993 209.181C373.414 208.73 373.811 208.269 374.2 207.792Z" fill="#F94D6F"/>
<path d="M156.863 203.911C157.756 204.404 158.487 205.218 158.808 206.164C159.027 207.36 158.926 208.337 158.31 209.417C158.018 209.815 157.721 210.145 157.369 210.5C157.245 210.5 157.121 210.5 156.993 210.5C157.004 212.432 157.019 214.364 157.037 216.295C157.045 217.193 157.053 218.09 157.058 218.987C157.063 219.853 157.07 220.719 157.08 221.585C157.083 221.915 157.085 222.245 157.086 222.575C157.088 223.039 157.093 223.502 157.099 223.965C157.099 224.168 157.099 224.168 157.099 224.376C157.119 225.484 157.348 226.367 158.192 227.176C159.051 227.686 159.891 227.673 160.882 227.676C161.006 227.676 161.13 227.677 161.257 227.677C161.67 227.679 162.083 227.679 162.495 227.679C162.792 227.68 163.088 227.681 163.385 227.682C164.19 227.684 164.994 227.686 165.799 227.686C166.302 227.687 166.805 227.688 167.308 227.688C168.882 227.691 170.456 227.693 172.031 227.693C173.847 227.694 175.663 227.697 177.479 227.703C178.883 227.706 180.288 227.708 181.693 227.708C182.531 227.709 183.37 227.71 184.209 227.713C184.997 227.716 185.786 227.716 186.575 227.715C186.864 227.715 187.153 227.715 187.442 227.717C187.838 227.719 188.233 227.718 188.629 227.717C188.85 227.717 189.071 227.717 189.299 227.717C190.241 227.617 190.973 227.336 191.701 226.734C192.138 225.967 192.109 225.291 192.104 224.43C192.107 224.163 192.107 224.163 192.11 223.89C192.116 223.303 192.116 222.716 192.116 222.129C192.119 221.722 192.122 221.314 192.126 220.907C192.134 219.835 192.138 218.763 192.141 217.692C192.144 216.598 192.152 215.504 192.16 214.41C192.174 212.264 192.183 210.118 192.19 207.973C193.743 207.973 195.296 207.973 196.895 207.973C196.9 209.964 196.903 211.956 196.905 213.948C196.906 214.873 196.908 215.798 196.91 216.723C196.912 217.619 196.913 218.514 196.913 219.409C196.914 219.748 196.914 220.087 196.915 220.426C196.92 222.111 196.907 223.793 196.818 225.476C196.811 225.608 196.805 225.74 196.798 225.877C196.676 227.894 195.808 229.193 194.26 230.539C192.232 231.96 190.003 232.062 187.577 232.05C187.266 232.051 186.956 232.051 186.645 232.052C185.805 232.054 184.965 232.052 184.126 232.05C183.245 232.048 182.364 232.048 181.482 232.049C180.003 232.049 178.524 232.047 177.045 232.044C175.338 232.04 173.63 232.039 171.923 232.04C170.277 232.041 168.63 232.04 166.984 232.038C166.285 232.037 165.586 232.037 164.887 232.038C164.064 232.038 163.24 232.036 162.416 232.034C162.115 232.033 161.814 232.033 161.513 232.033C158.806 232.037 156.45 231.796 154.381 229.941C152.389 227.851 152.421 225.451 152.424 222.773C152.424 222.256 152.421 221.739 152.418 221.222C152.409 219.754 152.405 218.286 152.404 216.818C152.403 215.917 152.398 215.016 152.391 214.115C152.389 213.773 152.389 213.43 152.39 213.088C152.391 212.61 152.388 212.132 152.384 211.655C152.385 211.514 152.387 211.373 152.388 211.228C152.374 210.325 152.189 209.88 151.534 209.236C150.922 208.314 151.029 207.218 151.158 206.167C151.587 205.083 152.38 204.295 153.477 203.806C154.568 203.446 155.801 203.468 156.863 203.911Z" fill="#11479E"/>
<path d="M174.937 92.354C176.887 93.8424 178.103 96.0952 178.638 98.3919C178.897 101.321 178.516 104.079 176.56 106.437C174.767 108.422 172.535 109.909 169.734 110.166C166.712 110.306 164.379 109.87 161.886 108.14C161.688 108.006 161.49 107.872 161.286 107.734C159.114 105.698 157.993 103.125 157.875 100.231C157.957 97.4421 159.044 95.0292 161.048 93.0155C165.094 89.5051 170.503 89.5285 174.937 92.354Z" fill="#F94D6F"/>
<path d="M325.733 207.222C326.015 207.431 326.015 207.431 326.203 207.612C326.708 207.631 327.208 207.639 327.712 207.64C327.872 207.641 328.032 207.642 328.197 207.643C328.738 207.646 329.278 207.647 329.818 207.649C330.204 207.65 330.59 207.652 330.976 207.654C332.026 207.659 333.077 207.663 334.128 207.666C335.225 207.67 336.321 207.675 337.418 207.68C339.497 207.689 341.575 207.697 343.654 207.705C346.019 207.714 348.385 207.724 350.75 207.734C355.618 207.754 360.486 207.774 365.353 207.792C365.565 208.519 365.569 209.219 365.565 209.97C365.566 210.1 365.567 210.23 365.567 210.364C365.566 210.938 365.544 211.395 365.353 211.944C358.831 211.944 352.31 211.944 345.59 211.944C345.59 218.497 345.59 225.051 345.59 231.802C345.143 232.017 344.865 232.006 344.367 232.007C344.116 232.007 344.116 232.007 343.861 232.008C343.686 232.007 343.511 232.006 343.331 232.005C343.157 232.006 342.982 232.007 342.802 232.008C342.635 232.007 342.468 232.007 342.296 232.007C342.143 232.007 341.99 232.006 341.832 232.006C341.449 231.983 341.449 231.983 341.073 231.802C341.073 225.249 341.073 218.696 341.073 211.944C338.701 211.952 336.329 211.959 333.885 211.967C333.137 211.966 332.389 211.966 331.618 211.965C330.946 211.97 330.946 211.97 330.273 211.976C329.975 211.979 329.676 211.978 329.377 211.977C328.923 211.975 328.47 211.979 328.017 211.985C327.818 211.982 327.818 211.982 327.616 211.978C327.095 211.991 326.695 212.026 326.297 212.366C326.065 212.637 325.851 212.922 325.639 213.208C324.593 213.854 323.532 214.044 322.311 213.859C321.099 213.555 320.323 212.914 319.616 211.944C319.108 210.879 319.08 209.794 319.427 208.683C319.904 207.59 320.84 206.909 321.945 206.438C323.416 206.243 324.505 206.407 325.733 207.222Z" fill="#F84D6F"/>
<path d="M160.757 68.063C162.919 69.6173 164.127 71.6788 164.631 74.2143C165.011 76.7904 164.357 79.2808 162.827 81.4221C161.14 83.4438 158.91 84.714 156.226 85.1201C153.165 85.3754 150.44 84.6772 148.04 82.7986C146.01 80.8949 144.938 78.424 144.899 75.7129C144.929 72.986 145.927 70.8102 147.88 68.8373C151.442 65.5976 156.786 65.3228 160.757 68.063Z" fill="#F84D6F"/>
<path d="M107.725 202.117C108.73 202.671 109.372 203.404 109.831 204.419C110.06 205.861 109.864 206.776 108.996 207.973C108.764 209.204 108.775 210.437 108.769 211.686C108.767 211.909 108.765 212.133 108.763 212.364C108.758 212.974 108.754 213.583 108.75 214.193C108.746 214.832 108.741 215.47 108.736 216.109C108.727 217.317 108.718 218.525 108.71 219.732C108.701 221.108 108.691 222.484 108.68 223.859C108.659 226.688 108.639 229.516 108.619 232.344C106.88 232.344 105.141 232.344 103.349 232.344C103.348 231.624 103.348 230.904 103.347 230.163C103.344 227.784 103.335 225.406 103.324 223.027C103.318 221.585 103.313 220.143 103.312 218.701C103.312 217.444 103.308 216.186 103.3 214.929C103.296 214.264 103.294 213.598 103.295 212.933C103.297 212.189 103.291 211.446 103.285 210.702C103.287 210.482 103.288 210.263 103.29 210.037C103.274 208.891 103.182 208.114 102.44 207.193C101.939 206.502 101.975 205.719 102.032 204.904C102.321 203.755 102.833 203.017 103.867 202.342C105.099 201.658 106.412 201.562 107.725 202.117Z" fill="#F84D70"/>
<path d="M185.79 244.981C188.523 244.981 191.256 244.981 194.072 244.981C194.072 245.339 194.072 245.696 194.072 246.064C193.911 246.114 193.75 246.164 193.584 246.216C193.376 246.281 193.168 246.347 192.954 246.414C192.747 246.479 192.539 246.544 192.326 246.611C191.835 246.739 191.835 246.739 191.625 246.967C191.595 247.341 191.578 247.716 191.565 248.09C191.558 248.295 191.551 248.5 191.544 248.711C191.531 249.104 191.531 249.104 191.519 249.506C191.492 250.336 191.465 251.166 191.437 252.022C194.542 252.022 197.648 252.022 200.848 252.022C200.848 250.294 200.848 248.566 200.848 246.786C200.165 246.608 199.481 246.429 198.777 246.245C198.591 246.185 198.405 246.126 198.213 246.064C198.213 245.707 198.213 245.349 198.213 244.981C201.008 244.981 203.803 244.981 206.683 244.981C206.683 245.339 206.683 245.696 206.683 246.064C206.314 246.185 205.946 246.306 205.577 246.425C205.269 246.526 205.269 246.526 204.955 246.629C204.424 246.786 204.424 246.786 204.048 246.786C204.048 251.016 204.048 255.246 204.048 259.604C204.793 259.783 205.538 259.961 206.306 260.146C206.43 260.205 206.555 260.265 206.683 260.326C206.683 260.624 206.683 260.922 206.683 261.229C203.888 261.229 201.092 261.229 198.213 261.229C198.213 260.931 198.213 260.633 198.213 260.326C198.581 260.205 198.95 260.085 199.318 259.965C199.524 259.898 199.729 259.831 199.94 259.762C200.471 259.604 200.471 259.604 200.848 259.604C200.848 257.638 200.848 255.672 200.848 253.647C197.742 253.647 194.636 253.647 191.437 253.647C191.499 255.553 191.561 257.459 191.625 259.423C192.122 259.602 192.619 259.781 193.131 259.965C193.445 260.084 193.759 260.204 194.072 260.326C194.072 260.624 194.072 260.922 194.072 261.229C191.339 261.229 188.606 261.229 185.79 261.229C185.79 260.931 185.79 260.633 185.79 260.326C186.019 260.24 186.248 260.155 186.484 260.067C186.613 260.018 186.742 259.97 186.875 259.921C187.325 259.775 187.771 259.69 188.237 259.604C188.241 257.986 188.245 256.368 188.247 254.75C188.248 253.999 188.249 253.248 188.251 252.497C188.253 251.772 188.254 251.048 188.255 250.323C188.255 250.046 188.256 249.769 188.257 249.493C188.258 249.106 188.258 248.719 188.258 248.332C188.259 248.112 188.259 247.891 188.26 247.664C188.274 247.157 188.274 247.157 188.049 246.786C187.674 246.645 187.292 246.519 186.908 246.403C186.7 246.339 186.492 246.275 186.278 246.21C186.117 246.162 185.956 246.114 185.79 246.064C185.79 245.707 185.79 245.349 185.79 244.981Z" fill="#707070"/>
<path d="M283.101 244.981C284.413 244.967 285.724 244.958 287.036 244.951C287.481 244.949 287.926 244.945 288.371 244.94C295.514 244.866 295.514 244.866 297.594 246.606C298.43 247.6 298.62 248.607 298.535 249.855C298.28 251.12 297.74 251.983 296.653 252.744C295.916 253.143 295.165 253.495 294.394 253.827C294.537 253.973 294.681 254.12 294.828 254.27C295.769 255.236 296.694 256.203 297.558 257.234C297.821 257.543 298.084 257.851 298.347 258.16C298.449 258.285 298.552 258.409 298.658 258.538C299.486 259.453 300.397 259.711 301.604 260.014C302.111 260.145 302.111 260.145 302.299 260.326C302.307 260.627 302.307 260.928 302.299 261.229C301.503 261.244 300.707 261.254 299.911 261.262C299.686 261.267 299.46 261.271 299.228 261.276C299.01 261.278 298.792 261.28 298.568 261.281C298.368 261.284 298.168 261.287 297.961 261.29C297.132 261.198 296.646 260.876 296.088 260.295C295.902 260.064 295.902 260.064 295.711 259.829C294.999 258.968 294.265 258.131 293.512 257.302C293.411 257.191 293.31 257.081 293.207 256.967C293.109 256.858 293.011 256.75 292.909 256.639C292.813 256.533 292.718 256.427 292.619 256.318C292.413 256.092 292.206 255.867 291.998 255.643C291.895 255.531 291.791 255.418 291.685 255.302C291.59 255.201 291.496 255.1 291.399 254.995C291.194 254.729 291.194 254.729 291.194 254.368C290.449 254.309 289.703 254.249 288.935 254.188C288.935 255.916 288.935 257.643 288.935 259.423C289.432 259.602 289.929 259.781 290.441 259.965C290.755 260.084 291.069 260.204 291.382 260.326C291.382 260.624 291.382 260.922 291.382 261.229C288.649 261.229 285.916 261.229 283.101 261.229C283.101 260.931 283.101 260.633 283.101 260.326C283.33 260.24 283.559 260.155 283.795 260.066C283.923 260.018 284.052 259.97 284.185 259.92C284.635 259.775 285.081 259.69 285.547 259.604C285.552 257.986 285.555 256.368 285.557 254.75C285.558 253.999 285.56 253.248 285.562 252.497C285.564 251.772 285.565 251.047 285.565 250.323C285.566 250.046 285.566 249.769 285.567 249.492C285.569 249.105 285.569 248.719 285.569 248.332C285.569 248.111 285.57 247.891 285.57 247.664C285.585 247.157 285.585 247.157 285.359 246.786C284.984 246.645 284.602 246.519 284.218 246.403C284.01 246.339 283.802 246.275 283.588 246.209C283.427 246.161 283.266 246.114 283.101 246.064C283.101 245.707 283.101 245.349 283.101 244.981ZM288.747 246.606C288.743 247.451 288.739 248.296 288.737 249.141C288.736 249.429 288.735 249.717 288.733 250.004C288.731 250.417 288.73 250.83 288.729 251.242C288.728 251.372 288.727 251.501 288.726 251.634C288.726 251.944 288.736 252.254 288.747 252.563C289.135 252.935 289.921 252.787 290.453 252.789C292.238 252.788 293.454 252.532 294.77 251.299C295.32 250.456 295.262 249.553 295.147 248.592C294.679 247.605 294.06 247.241 293.076 246.786C292.528 246.623 292.04 246.584 291.468 246.588C291.309 246.589 291.15 246.589 290.986 246.59C290.822 246.591 290.658 246.593 290.488 246.594C290.321 246.595 290.154 246.596 289.982 246.597C289.57 246.599 289.159 246.602 288.747 246.606Z" fill="#707070"/>
<path d="M330.156 244.981C331.479 244.972 332.801 244.966 334.123 244.961C334.572 244.959 335.021 244.957 335.47 244.954C336.119 244.949 336.768 244.947 337.417 244.946C337.614 244.944 337.811 244.942 338.015 244.94C340.349 244.94 342.427 245.207 344.438 246.38C345.107 247.061 345.383 247.752 345.421 248.688C345.337 249.98 344.912 250.706 343.932 251.604C343.297 252.046 342.743 252.298 342.014 252.563C342.253 252.623 342.253 252.623 342.497 252.683C344.074 253.106 345.267 253.568 346.332 254.786C346.831 255.999 346.864 257.309 346.343 258.521C345.512 259.807 344.283 260.576 342.77 260.963C341.391 261.259 340.057 261.275 338.648 261.264C338.404 261.263 338.161 261.263 337.909 261.262C337.268 261.261 336.626 261.257 335.984 261.253C335.327 261.25 334.669 261.248 334.012 261.246C332.727 261.242 331.441 261.236 330.156 261.229C330.156 260.931 330.156 260.633 330.156 260.326C330.385 260.24 330.614 260.155 330.85 260.066C330.979 260.018 331.108 259.97 331.241 259.921C331.691 259.775 332.137 259.69 332.603 259.604C332.607 257.986 332.611 256.368 332.613 254.75C332.614 253.999 332.615 253.248 332.617 252.497C332.619 251.772 332.62 251.048 332.621 250.323C332.621 250.046 332.622 249.769 332.623 249.492C332.624 249.106 332.625 248.719 332.624 248.332C332.625 248.111 332.625 247.891 332.626 247.664C332.64 247.157 332.64 247.157 332.415 246.786C332.04 246.645 331.658 246.519 331.274 246.403C331.066 246.339 330.858 246.275 330.644 246.21C330.483 246.162 330.322 246.114 330.156 246.064C330.156 245.707 330.156 245.349 330.156 244.981ZM335.803 246.606C335.803 248.453 335.803 250.299 335.803 252.202C338.817 252.373 338.817 252.373 341.461 251.198C342.151 250.365 342.123 249.627 342.014 248.592C341.827 247.907 341.515 247.503 340.918 247.09C339.339 246.332 337.513 246.56 335.803 246.606ZM335.803 253.646C335.803 255.672 335.803 257.698 335.803 259.784C336.506 259.799 337.208 259.814 337.932 259.83C338.258 259.839 338.258 259.839 338.59 259.849C339.969 259.863 341.152 259.67 342.391 259.062C343.027 258.423 343.277 257.812 343.35 256.923C343.305 255.965 343.021 255.167 342.332 254.47C340.828 253.632 339.201 253.619 337.509 253.635C336.946 253.639 336.383 253.643 335.803 253.646Z" fill="#707070"/>
<path d="M375.706 244.981C377.098 244.967 378.49 244.958 379.883 244.951C380.355 244.949 380.827 244.945 381.3 244.94C387.975 244.875 387.975 244.875 390.493 246.2C390.618 246.263 390.743 246.327 390.872 246.393C392.815 247.416 393.756 248.81 394.493 250.815C395.052 252.85 394.873 255.275 393.922 257.173C392.514 259.359 390.371 260.529 387.825 261.118C386.703 261.312 385.591 261.295 384.455 261.281C384.201 261.28 383.947 261.28 383.692 261.279C383.031 261.277 382.371 261.272 381.71 261.266C381.032 261.26 380.354 261.258 379.677 261.255C378.353 261.249 377.029 261.24 375.706 261.229C375.706 260.931 375.706 260.633 375.706 260.326C375.935 260.24 376.164 260.155 376.4 260.066C376.528 260.018 376.657 259.97 376.79 259.92C377.24 259.775 377.686 259.69 378.152 259.604C378.157 257.986 378.16 256.368 378.162 254.75C378.163 253.999 378.165 253.248 378.167 252.497C378.169 251.772 378.17 251.047 378.17 250.323C378.171 250.046 378.171 249.769 378.172 249.492C378.174 249.106 378.174 248.719 378.174 248.332C378.174 248.111 378.175 247.891 378.175 247.664C378.19 247.157 378.19 247.157 377.964 246.786C377.589 246.645 377.207 246.519 376.823 246.403C376.615 246.339 376.407 246.275 376.193 246.209C376.032 246.162 375.871 246.114 375.706 246.064C375.706 245.707 375.706 245.349 375.706 244.981ZM381.352 246.606C381.352 250.955 381.352 255.304 381.352 259.784C385.965 259.995 385.965 259.995 389.822 258.16C391.087 256.808 391.445 254.833 391.381 253.067C391.149 250.866 390.331 249.199 388.546 247.78C386.305 246.323 384.078 246.606 381.352 246.606Z" fill="#707070"/>
<path d="M235.292 244.981C236.685 244.967 238.077 244.958 239.469 244.951C239.942 244.949 240.414 244.945 240.886 244.94C247.561 244.875 247.561 244.875 250.079 246.2C250.205 246.263 250.33 246.327 250.459 246.393C252.402 247.416 253.343 248.81 254.08 250.815C254.639 252.85 254.46 255.275 253.509 257.173C252.101 259.359 249.958 260.529 247.411 261.118C246.29 261.312 245.178 261.295 244.042 261.281C243.787 261.28 243.533 261.28 243.279 261.279C242.618 261.277 241.957 261.272 241.296 261.266C240.619 261.26 239.941 261.258 239.263 261.255C237.94 261.249 236.616 261.24 235.292 261.229C235.292 260.931 235.292 260.633 235.292 260.326C235.521 260.24 235.75 260.155 235.986 260.066C236.115 260.018 236.244 259.97 236.377 259.92C236.827 259.775 237.273 259.69 237.739 259.604C237.743 257.986 237.747 256.368 237.749 254.75C237.75 253.999 237.751 253.248 237.753 252.497C237.755 251.772 237.756 251.047 237.757 250.323C237.757 250.046 237.758 249.769 237.759 249.492C237.76 249.106 237.761 248.719 237.76 248.332C237.761 248.111 237.761 247.891 237.762 247.664C237.776 247.157 237.776 247.157 237.551 246.786C237.176 246.645 236.794 246.519 236.41 246.403C236.202 246.339 235.994 246.275 235.78 246.209C235.619 246.162 235.458 246.114 235.292 246.064C235.292 245.707 235.292 245.349 235.292 244.981ZM240.939 246.606C240.939 250.955 240.939 255.304 240.939 259.784C245.552 259.995 245.552 259.995 249.409 258.16C250.673 256.808 251.031 254.833 250.968 253.067C250.736 250.866 249.917 249.199 248.132 247.78C245.892 246.323 243.664 246.606 240.939 246.606Z" fill="#707070"/>
<path d="M260.514 244.981C265.607 244.981 270.7 244.981 275.948 244.981C275.948 246.351 275.948 247.722 275.948 249.133C275.327 249.133 274.706 249.133 274.066 249.133C273.817 248.359 273.569 247.584 273.313 246.786C270.953 246.727 268.592 246.667 266.161 246.606C266.161 248.393 266.161 250.18 266.161 252.022C267.651 252.022 269.142 252.022 270.678 252.022C270.957 250.949 270.957 250.949 271.243 249.855C271.739 249.855 272.236 249.855 272.748 249.855C272.748 251.821 272.748 253.787 272.748 255.813C272.251 255.813 271.754 255.813 271.243 255.813C270.87 254.83 270.87 254.83 270.49 253.827C269.061 253.768 267.632 253.708 266.161 253.647C266.161 255.672 266.161 257.698 266.161 259.785C268.831 259.725 271.502 259.665 274.254 259.604C274.44 259.068 274.627 258.532 274.819 257.979C274.944 257.618 275.07 257.257 275.195 256.896C275.754 256.896 276.313 256.896 276.889 256.896C276.889 258.326 276.889 259.756 276.889 261.229C271.485 261.229 266.082 261.229 260.514 261.229C260.514 260.931 260.514 260.633 260.514 260.326C260.743 260.24 260.972 260.155 261.208 260.067C261.337 260.018 261.466 259.97 261.598 259.921C262.049 259.775 262.495 259.69 262.961 259.604C262.965 257.986 262.968 256.368 262.971 254.75C262.972 253.999 262.973 253.248 262.975 252.497C262.977 251.772 262.978 251.048 262.979 250.323C262.979 250.046 262.98 249.769 262.981 249.493C262.982 249.106 262.982 248.719 262.982 248.332C262.983 248.112 262.983 247.891 262.983 247.664C262.998 247.157 262.998 247.157 262.773 246.786C262.397 246.645 262.016 246.519 261.631 246.403C261.424 246.339 261.216 246.275 261.001 246.21C260.841 246.162 260.68 246.114 260.514 246.064C260.514 245.707 260.514 245.349 260.514 244.981Z" fill="#707070"/>
<path d="M360.661 244.783C361.313 244.792 361.313 244.792 361.966 244.8C363.02 246.789 364.022 248.797 364.995 250.823C365.229 251.31 365.465 251.796 365.701 252.282C366.379 253.681 367.051 255.08 367.674 256.504C367.763 256.704 367.852 256.904 367.944 257.11C368.101 257.464 368.253 257.821 368.398 258.179C368.897 259.298 369.454 259.714 370.621 260.19C370.746 260.235 370.871 260.28 371 260.326C371 260.624 371 260.922 371 261.228C368.516 261.228 366.031 261.228 363.471 261.228C363.471 260.931 363.471 260.633 363.471 260.326C363.706 260.234 363.942 260.144 364.177 260.055C364.308 260.005 364.439 259.954 364.574 259.903C364.977 259.784 364.977 259.784 365.73 259.784C365.109 258.474 364.488 257.163 363.848 255.813C361.55 255.813 359.252 255.813 356.884 255.813C356.325 257.004 355.766 258.196 355.19 259.423C355.873 259.721 356.556 260.019 357.26 260.326C357.26 260.624 357.26 260.922 357.26 261.228C355.148 261.228 353.036 261.228 350.861 261.228C350.861 260.931 350.861 260.633 350.861 260.326C351.041 260.272 351.041 260.272 351.226 260.217C352.351 259.796 352.866 259.358 353.379 258.303C353.434 258.193 353.488 258.082 353.545 257.968C353.72 257.612 353.89 257.254 354.06 256.896C354.174 256.66 354.288 256.425 354.402 256.189C354.695 255.583 354.983 254.974 355.27 254.365C355.453 253.975 355.638 253.584 355.822 253.194C356.351 252.076 356.878 250.957 357.39 249.831C359.675 244.827 359.675 244.827 360.661 244.783ZM360.272 248.05C359.896 248.869 359.521 249.689 359.146 250.508C359.018 250.787 358.89 251.066 358.762 251.345C358.579 251.745 358.396 252.145 358.213 252.545C358.155 252.671 358.098 252.796 358.038 252.926C357.758 253.448 357.758 253.448 357.637 254.007C359.438 254.007 361.239 254.007 363.095 254.007C362.835 253.426 362.575 252.846 362.307 252.247C361.682 250.851 361.063 249.454 360.46 248.05C360.398 248.05 360.336 248.05 360.272 248.05Z" fill="#707070"/>
<path d="M315.111 244.783C315.763 244.792 315.763 244.792 316.416 244.8C317.47 246.789 318.472 248.797 319.445 250.823C319.679 251.31 319.915 251.796 320.151 252.282C320.829 253.681 321.501 255.08 322.124 256.504C322.213 256.704 322.302 256.904 322.394 257.11C322.551 257.464 322.703 257.821 322.848 258.179C323.347 259.298 323.904 259.714 325.071 260.19C325.196 260.235 325.321 260.28 325.45 260.326C325.45 260.624 325.45 260.922 325.45 261.228C322.966 261.228 320.481 261.228 317.921 261.228C317.921 260.931 317.921 260.633 317.921 260.326C318.156 260.234 318.391 260.144 318.627 260.055C318.758 260.005 318.889 259.954 319.024 259.903C319.427 259.784 319.427 259.784 320.18 259.784C319.559 258.474 318.938 257.163 318.298 255.813C316 255.813 313.701 255.813 311.334 255.813C310.775 257.004 310.216 258.196 309.64 259.423C310.323 259.721 311.006 260.019 311.71 260.326C311.71 260.624 311.71 260.922 311.71 261.228C309.598 261.228 307.486 261.228 305.311 261.228C305.311 260.931 305.311 260.633 305.311 260.326C305.491 260.272 305.491 260.272 305.676 260.217C306.801 259.796 307.316 259.358 307.829 258.303C307.883 258.193 307.938 258.082 307.995 257.968C308.17 257.612 308.34 257.254 308.51 256.896C308.624 256.66 308.738 256.425 308.852 256.189C309.145 255.583 309.433 254.974 309.72 254.365C309.903 253.975 310.088 253.584 310.272 253.194C310.801 252.076 311.328 250.957 311.84 249.831C314.125 244.827 314.125 244.827 315.111 244.783ZM314.722 248.05C314.346 248.869 313.971 249.689 313.596 250.508C313.468 250.787 313.34 251.066 313.212 251.345C313.029 251.745 312.846 252.145 312.663 252.545C312.605 252.671 312.548 252.796 312.488 252.926C312.208 253.448 312.208 253.448 312.087 254.007C313.888 254.007 315.689 254.007 317.545 254.007C317.285 253.426 317.025 252.846 316.757 252.247C316.132 250.851 315.513 249.454 314.91 248.05C314.848 248.05 314.786 248.05 314.722 248.05Z" fill="#707070"/>
<path d="M211.577 244.981C214.061 244.981 216.546 244.981 219.106 244.981C219.106 245.339 219.106 245.696 219.106 246.064C218.081 246.332 218.081 246.332 217.035 246.606C217.22 246.872 217.405 247.138 217.59 247.404C217.755 247.642 217.921 247.88 218.086 248.118C218.567 248.812 219.051 249.503 219.539 250.192C219.641 250.337 219.743 250.482 219.848 250.631C220.049 250.915 220.25 251.199 220.452 251.482C220.543 251.612 220.635 251.743 220.73 251.877C220.811 251.992 220.893 252.107 220.977 252.226C221.185 252.578 221.282 252.891 221.364 253.286C221.909 252.793 222.323 252.302 222.721 251.694C222.831 251.526 222.942 251.358 223.056 251.185C223.169 251.011 223.282 250.836 223.399 250.657C223.624 250.314 223.849 249.972 224.074 249.629C224.239 249.375 224.239 249.375 224.409 249.116C224.958 248.277 225.514 247.442 226.07 246.606C225.943 246.58 225.817 246.554 225.687 246.527C224.423 246.267 224.423 246.267 223.999 246.064C223.999 245.707 223.999 245.349 223.999 244.981C226.111 244.981 228.223 244.981 230.399 244.981C230.399 245.339 230.399 245.696 230.399 246.064C230.125 246.186 229.85 246.306 229.575 246.425C229.422 246.492 229.27 246.559 229.112 246.629C228.705 246.786 228.705 246.786 228.328 246.786C228.251 246.943 228.251 246.943 228.173 247.103C227.953 247.507 227.708 247.852 227.425 248.218C226.831 248.994 226.25 249.777 225.672 250.565C225.422 250.9 225.169 251.234 224.913 251.564C222.885 254.184 222.277 256.164 222.682 259.423C222.797 259.46 222.913 259.497 223.032 259.534C223.184 259.583 223.336 259.631 223.493 259.681C223.718 259.753 223.718 259.753 223.949 259.826C224.412 259.977 224.866 260.145 225.317 260.326C225.317 260.624 225.317 260.922 225.317 261.229C222.46 261.229 219.602 261.229 216.659 261.229C216.659 260.931 216.659 260.633 216.659 260.326C216.921 260.239 217.184 260.153 217.447 260.067C217.593 260.018 217.739 259.97 217.89 259.921C218.355 259.784 218.816 259.692 219.294 259.604C219.703 256.329 219.083 254.412 217.038 251.795C216.398 250.959 215.823 250.083 215.235 249.212C214.083 247.391 214.083 247.391 212.271 246.279C212.042 246.208 211.813 246.137 211.577 246.064C211.577 245.707 211.577 245.349 211.577 244.981Z" fill="#707070"/>
<path d="M150.593 244.981C156.369 244.981 162.146 244.981 168.097 244.981C168.097 246.411 168.097 247.841 168.097 249.314C167.476 249.314 166.855 249.314 166.215 249.314C166.029 248.42 165.842 247.527 165.65 246.606C164.035 246.606 162.42 246.606 160.756 246.606C160.819 250.895 160.881 255.185 160.945 259.604C161.752 259.783 162.56 259.961 163.392 260.146C163.58 260.326 163.58 260.326 163.58 261.229C160.723 261.229 157.865 261.229 154.922 261.229C154.922 260.931 154.922 260.633 154.922 260.326C155.183 260.251 155.183 260.251 155.45 260.175C155.788 260.076 155.788 260.076 156.133 259.976C156.471 259.879 156.471 259.879 156.815 259.78C157.342 259.657 157.342 259.657 157.557 259.423C157.58 259.025 157.59 258.626 157.595 258.226C157.597 258.101 157.599 257.976 157.601 257.847C157.607 257.432 157.612 257.017 157.616 256.602C157.62 256.315 157.624 256.028 157.628 255.741C157.639 254.984 157.648 254.226 157.657 253.469C157.666 252.697 157.677 251.925 157.687 251.153C157.707 249.638 157.726 248.122 157.745 246.606C155.416 246.695 155.416 246.695 153.039 246.786C152.791 247.621 152.543 248.455 152.287 249.314C151.728 249.314 151.168 249.314 150.593 249.314C150.593 247.884 150.593 246.454 150.593 244.981Z" fill="#707070"/>
<path d="M136.476 244.981C139.271 244.981 142.066 244.981 144.946 244.981C144.946 245.339 144.946 245.696 144.946 246.064C144.684 246.136 144.684 246.136 144.417 246.21C144.192 246.273 143.966 246.337 143.734 246.403C143.509 246.466 143.284 246.529 143.053 246.593C142.477 246.725 142.477 246.725 142.311 247.148C142.293 247.542 142.289 247.937 142.289 248.332C142.289 248.454 142.289 248.575 142.289 248.7C142.289 249.103 142.291 249.505 142.292 249.908C142.293 250.186 142.293 250.465 142.293 250.744C142.294 251.478 142.296 252.212 142.298 252.947C142.3 253.696 142.301 254.445 142.302 255.194C142.304 256.664 142.307 258.134 142.311 259.604C142.485 259.641 142.66 259.678 142.839 259.716C143.065 259.765 143.29 259.813 143.522 259.864C143.747 259.912 143.972 259.96 144.204 260.009C144.758 260.146 144.758 260.146 144.946 260.326C144.946 260.624 144.946 260.922 144.946 261.229C142.151 261.229 139.356 261.229 136.476 261.229C136.476 260.931 136.476 260.633 136.476 260.326C136.738 260.239 137.001 260.153 137.264 260.067C137.41 260.018 137.557 259.97 137.707 259.921C138.167 259.785 138.64 259.694 139.111 259.604C139.111 255.374 139.111 251.144 139.111 246.786C137.993 246.518 137.993 246.518 136.852 246.245C136.728 246.185 136.604 246.126 136.476 246.064C136.476 245.707 136.476 245.349 136.476 244.981Z" fill="#707070"/>
<path d="M121.795 244.981C124.59 244.981 127.385 244.981 130.265 244.981C130.265 245.339 130.265 245.696 130.265 246.064C130.003 246.136 130.003 246.136 129.736 246.21C129.511 246.273 129.285 246.337 129.053 246.403C128.828 246.466 128.603 246.529 128.372 246.593C127.796 246.725 127.796 246.725 127.63 247.148C127.612 247.542 127.608 247.937 127.608 248.332C127.608 248.454 127.608 248.575 127.608 248.7C127.608 249.103 127.61 249.505 127.611 249.908C127.612 250.186 127.612 250.465 127.612 250.744C127.613 251.478 127.615 252.212 127.617 252.947C127.619 253.696 127.62 254.445 127.621 255.194C127.623 256.664 127.626 258.134 127.63 259.604C127.804 259.641 127.979 259.678 128.158 259.716C128.384 259.765 128.609 259.813 128.841 259.864C129.066 259.912 129.291 259.96 129.523 260.009C130.077 260.146 130.077 260.146 130.265 260.326C130.265 260.624 130.265 260.922 130.265 261.229C127.47 261.229 124.675 261.229 121.795 261.229C121.795 260.931 121.795 260.633 121.795 260.326C122.057 260.239 122.32 260.153 122.583 260.067C122.729 260.018 122.876 259.97 123.026 259.921C123.486 259.785 123.959 259.694 124.43 259.604C124.43 255.374 124.43 251.144 124.43 246.786C123.312 246.518 123.312 246.518 122.171 246.245C122.047 246.185 121.923 246.126 121.795 246.064C121.795 245.707 121.795 245.349 121.795 244.981Z" fill="#707070"/>
<path d="M107.114 244.981C109.909 244.981 112.704 244.981 115.583 244.981C115.583 245.339 115.583 245.696 115.583 246.064C115.322 246.136 115.322 246.136 115.055 246.21C114.829 246.273 114.604 246.337 114.372 246.403C114.147 246.466 113.922 246.529 113.69 246.593C113.115 246.725 113.115 246.725 112.948 247.148C112.931 247.542 112.926 247.937 112.927 248.332C112.927 248.454 112.927 248.575 112.927 248.7C112.927 249.103 112.929 249.505 112.93 249.908C112.93 250.186 112.931 250.465 112.931 250.744C112.932 251.478 112.933 252.212 112.935 252.947C112.937 253.696 112.938 254.445 112.939 255.194C112.941 256.664 112.944 258.134 112.948 259.604C113.123 259.641 113.297 259.678 113.477 259.716C113.702 259.765 113.928 259.813 114.16 259.864C114.385 259.912 114.61 259.96 114.842 260.009C115.395 260.146 115.395 260.146 115.583 260.326C115.583 260.624 115.583 260.922 115.583 261.229C112.788 261.229 109.993 261.229 107.114 261.229C107.114 260.931 107.114 260.633 107.114 260.326C107.376 260.239 107.639 260.153 107.902 260.067C108.048 260.018 108.194 259.97 108.345 259.921C108.805 259.785 109.277 259.694 109.749 259.604C109.749 255.374 109.749 251.144 109.749 246.786C108.631 246.518 108.631 246.518 107.49 246.245C107.366 246.185 107.242 246.126 107.114 246.064C107.114 245.707 107.114 245.349 107.114 244.981Z" fill="#707070"/>
</svg>
